<mxfile host="app.diagrams.net" modified="2024-03-18T14:15:30.140Z" agent="Mozilla/5.0 (Windows NT 10.0; Win64; x64) AppleWebKit/537.36 (KHTML, like Gecko) Chrome/122.0.0.0 Safari/537.36" etag="gajaQcTfn7jnkrUo87Ai" version="24.0.6" type="github">
  <diagram id="SPNSxIEnbE4rGij_XJni" name="Página-1">
    <mxGraphModel dx="1932" dy="627" grid="1" gridSize="10" guides="1" tooltips="1" connect="1" arrows="1" fold="1" page="1" pageScale="1" pageWidth="827" pageHeight="1169" background="none" math="0" shadow="0">
      <root>
        <mxCell id="0" />
        <mxCell id="1" parent="0" />
        <mxCell id="y_n4Y0-uSLIjDfCYiDJm-6" value="" style="whiteSpace=wrap;html=1;aspect=fixed;fillColor=none;strokeColor=default;glass=1;shadow=1;" parent="1" vertex="1">
          <mxGeometry x="1170" y="180" width="760" height="760" as="geometry" />
        </mxCell>
        <mxCell id="y_n4Y0-uSLIjDfCYiDJm-10" style="edgeStyle=orthogonalEdgeStyle;rounded=0;orthogonalLoop=1;jettySize=auto;html=1;fillColor=#dae8fc;strokeColor=#6c8ebf;strokeWidth=3;flowAnimation=1;" parent="1" source="y_n4Y0-uSLIjDfCYiDJm-1" target="y_n4Y0-uSLIjDfCYiDJm-8" edge="1">
          <mxGeometry relative="1" as="geometry" />
        </mxCell>
        <mxCell id="y_n4Y0-uSLIjDfCYiDJm-1" value="Usuario" style="shape=umlActor;verticalLabelPosition=bottom;verticalAlign=top;html=1;outlineConnect=0;" parent="1" vertex="1">
          <mxGeometry y="230" width="30" height="60" as="geometry" />
        </mxCell>
        <mxCell id="y_n4Y0-uSLIjDfCYiDJm-7" value="&lt;h1&gt;&lt;font style=&quot;font-size: 57px;&quot;&gt;Aplicação&lt;/font&gt;&lt;/h1&gt;" style="text;html=1;align=center;verticalAlign=middle;resizable=0;points=[];autosize=1;strokeColor=none;fillColor=none;" parent="1" vertex="1">
          <mxGeometry x="290" y="100" width="290" height="110" as="geometry" />
        </mxCell>
        <mxCell id="qOq36qgV_aA-appTDX9U-49" value="" style="edgeStyle=orthogonalEdgeStyle;rounded=0;orthogonalLoop=1;jettySize=auto;html=1;fillColor=#e1d5e7;strokeColor=#9673a6;strokeWidth=3;flowAnimation=1;" edge="1" parent="1" source="y_n4Y0-uSLIjDfCYiDJm-8" target="qOq36qgV_aA-appTDX9U-48">
          <mxGeometry relative="1" as="geometry" />
        </mxCell>
        <mxCell id="y_n4Y0-uSLIjDfCYiDJm-8" value="Home" style="rounded=1;whiteSpace=wrap;html=1;fillColor=#dae8fc;strokeColor=#6c8ebf;" parent="1" vertex="1">
          <mxGeometry x="110" y="230" width="120" height="60" as="geometry" />
        </mxCell>
        <mxCell id="qOq36qgV_aA-appTDX9U-1" value="Registrar" style="whiteSpace=wrap;html=1;rounded=1;fillColor=#dae8fc;strokeColor=#6c8ebf;" vertex="1" parent="1">
          <mxGeometry x="110" y="480" width="120" height="60" as="geometry" />
        </mxCell>
        <mxCell id="qOq36qgV_aA-appTDX9U-11" value="API Registrar" style="ellipse;whiteSpace=wrap;html=1;aspect=fixed;fillColor=#d5e8d4;strokeColor=#82b366;" vertex="1" parent="1">
          <mxGeometry x="130" y="600" width="80" height="80" as="geometry" />
        </mxCell>
        <mxCell id="qOq36qgV_aA-appTDX9U-70" value="" style="edgeStyle=orthogonalEdgeStyle;rounded=0;orthogonalLoop=1;jettySize=auto;html=1;fillColor=#e1d5e7;strokeColor=#9673a6;strokeWidth=3;exitX=1;exitY=0.5;exitDx=0;exitDy=0;flowAnimation=1;" edge="1" parent="1" source="qOq36qgV_aA-appTDX9U-17" target="qOq36qgV_aA-appTDX9U-69">
          <mxGeometry relative="1" as="geometry">
            <mxPoint x="390" y="509.939696969697" as="sourcePoint" />
            <mxPoint x="450.03030303030323" y="560.0003030303031" as="targetPoint" />
            <Array as="points">
              <mxPoint x="450" y="510" />
            </Array>
          </mxGeometry>
        </mxCell>
        <mxCell id="qOq36qgV_aA-appTDX9U-17" value="Logar" style="whiteSpace=wrap;html=1;fillColor=#dae8fc;strokeColor=#6c8ebf;rounded=1;" vertex="1" parent="1">
          <mxGeometry x="270" y="480" width="120" height="60" as="geometry" />
        </mxCell>
        <mxCell id="qOq36qgV_aA-appTDX9U-19" value="API Logar" style="ellipse;whiteSpace=wrap;html=1;aspect=fixed;fillColor=#d5e8d4;strokeColor=#82b366;" vertex="1" parent="1">
          <mxGeometry x="290" y="600" width="80" height="80" as="geometry" />
        </mxCell>
        <mxCell id="qOq36qgV_aA-appTDX9U-22" value="" style="endArrow=classic;startArrow=classic;html=1;rounded=0;entryX=0.5;entryY=1;entryDx=0;entryDy=0;fillColor=#d5e8d4;strokeColor=#82b366;strokeWidth=2;edgeStyle=elbowEdgeStyle;flowAnimation=1;" edge="1" parent="1" source="qOq36qgV_aA-appTDX9U-19" target="qOq36qgV_aA-appTDX9U-17">
          <mxGeometry width="50" height="50" relative="1" as="geometry">
            <mxPoint x="340" y="694.97" as="sourcePoint" />
            <mxPoint x="384" y="644.97" as="targetPoint" />
          </mxGeometry>
        </mxCell>
        <mxCell id="qOq36qgV_aA-appTDX9U-23" value="" style="endArrow=classic;startArrow=classic;html=1;rounded=0;entryX=0.5;entryY=1;entryDx=0;entryDy=0;exitX=0.5;exitY=0;exitDx=0;exitDy=0;strokeWidth=2;fillColor=#d5e8d4;strokeColor=#82b366;flowAnimation=1;" edge="1" parent="1" source="qOq36qgV_aA-appTDX9U-11" target="qOq36qgV_aA-appTDX9U-1">
          <mxGeometry width="50" height="50" relative="1" as="geometry">
            <mxPoint x="169.82999999999998" y="694.97" as="sourcePoint" />
            <mxPoint x="169.82999999999998" y="644.97" as="targetPoint" />
            <Array as="points" />
          </mxGeometry>
        </mxCell>
        <mxCell id="qOq36qgV_aA-appTDX9U-27" value="" style="edgeStyle=orthogonalEdgeStyle;rounded=0;orthogonalLoop=1;jettySize=auto;html=1;strokeWidth=3;fillColor=#dae8fc;strokeColor=#6c8ebf;exitX=1;exitY=0.5;exitDx=0;exitDy=0;entryX=0;entryY=0.5;entryDx=0;entryDy=0;flowAnimation=1;" edge="1" parent="1" source="qOq36qgV_aA-appTDX9U-1" target="qOq36qgV_aA-appTDX9U-17">
          <mxGeometry relative="1" as="geometry">
            <mxPoint x="280" y="615" as="sourcePoint" />
            <mxPoint x="230" y="615" as="targetPoint" />
          </mxGeometry>
        </mxCell>
        <mxCell id="qOq36qgV_aA-appTDX9U-36" value="" style="rounded=0;orthogonalLoop=1;jettySize=auto;html=1;startArrow=classic;startFill=1;fillColor=#d5e8d4;strokeColor=#82b366;strokeWidth=2;flowAnimation=1;" edge="1" parent="1" source="qOq36qgV_aA-appTDX9U-33" target="qOq36qgV_aA-appTDX9U-35">
          <mxGeometry relative="1" as="geometry" />
        </mxCell>
        <mxCell id="qOq36qgV_aA-appTDX9U-38" value="" style="edgeStyle=orthogonalEdgeStyle;rounded=0;orthogonalLoop=1;jettySize=auto;html=1;fillColor=#d5e8d4;strokeColor=#82b366;strokeWidth=2;startArrow=classic;startFill=1;flowAnimation=1;" edge="1" parent="1" source="qOq36qgV_aA-appTDX9U-33" target="qOq36qgV_aA-appTDX9U-37">
          <mxGeometry relative="1" as="geometry" />
        </mxCell>
        <mxCell id="qOq36qgV_aA-appTDX9U-33" value="Menu" style="whiteSpace=wrap;html=1;fillColor=#dae8fc;strokeColor=#6c8ebf;rounded=1;" vertex="1" parent="1">
          <mxGeometry x="390" y="745" width="120" height="60" as="geometry" />
        </mxCell>
        <mxCell id="qOq36qgV_aA-appTDX9U-35" value="API de Listagem dos itens do Menu" style="ellipse;whiteSpace=wrap;html=1;fillColor=#d5e8d4;strokeColor=#82b366;rounded=1;" vertex="1" parent="1">
          <mxGeometry x="220" y="730" width="90" height="90" as="geometry" />
        </mxCell>
        <mxCell id="qOq36qgV_aA-appTDX9U-37" value="API Registrar novo item" style="ellipse;whiteSpace=wrap;html=1;fillColor=#d5e8d4;strokeColor=#82b366;rounded=1;" vertex="1" parent="1">
          <mxGeometry x="410" y="840" width="80" height="80" as="geometry" />
        </mxCell>
        <mxCell id="qOq36qgV_aA-appTDX9U-40" value="" style="edgeStyle=orthogonalEdgeStyle;rounded=0;orthogonalLoop=1;jettySize=auto;html=1;fillColor=#d5e8d4;strokeColor=#82b366;strokeWidth=2;startArrow=classic;startFill=1;exitX=1;exitY=0.5;exitDx=0;exitDy=0;flowAnimation=1;" edge="1" parent="1" target="qOq36qgV_aA-appTDX9U-41" source="qOq36qgV_aA-appTDX9U-33">
          <mxGeometry relative="1" as="geometry">
            <mxPoint x="500" y="760.0147368421052" as="sourcePoint" />
          </mxGeometry>
        </mxCell>
        <mxCell id="qOq36qgV_aA-appTDX9U-41" value="API Registrar novo item" style="ellipse;whiteSpace=wrap;html=1;fillColor=#d5e8d4;strokeColor=#82b366;rounded=1;" vertex="1" parent="1">
          <mxGeometry x="590" y="735" width="80" height="80" as="geometry" />
        </mxCell>
        <mxCell id="qOq36qgV_aA-appTDX9U-63" style="edgeStyle=orthogonalEdgeStyle;rounded=0;orthogonalLoop=1;jettySize=auto;html=1;exitX=0.5;exitY=1;exitDx=0;exitDy=0;fillColor=#e1d5e7;strokeColor=#9673a6;strokeWidth=3;flowAnimation=1;" edge="1" parent="1" source="qOq36qgV_aA-appTDX9U-48" target="qOq36qgV_aA-appTDX9U-1">
          <mxGeometry relative="1" as="geometry">
            <mxPoint x="191" y="420" as="sourcePoint" />
          </mxGeometry>
        </mxCell>
        <mxCell id="qOq36qgV_aA-appTDX9U-65" value="S" style="edgeLabel;html=1;align=center;verticalAlign=middle;resizable=0;points=[];labelBorderColor=none;" vertex="1" connectable="0" parent="qOq36qgV_aA-appTDX9U-63">
          <mxGeometry x="-0.7971" y="-2" relative="1" as="geometry">
            <mxPoint x="2" as="offset" />
          </mxGeometry>
        </mxCell>
        <mxCell id="qOq36qgV_aA-appTDX9U-64" style="edgeStyle=orthogonalEdgeStyle;rounded=0;orthogonalLoop=1;jettySize=auto;html=1;fillColor=#e1d5e7;strokeColor=#9673a6;strokeWidth=3;flowAnimation=1;" edge="1" parent="1" source="qOq36qgV_aA-appTDX9U-48" target="qOq36qgV_aA-appTDX9U-17">
          <mxGeometry relative="1" as="geometry">
            <mxPoint x="231" y="380" as="sourcePoint" />
          </mxGeometry>
        </mxCell>
        <mxCell id="qOq36qgV_aA-appTDX9U-67" value="N" style="edgeLabel;html=1;align=center;verticalAlign=middle;resizable=0;points=[];" vertex="1" connectable="0" parent="qOq36qgV_aA-appTDX9U-64">
          <mxGeometry x="-0.9381" relative="1" as="geometry">
            <mxPoint x="-4" as="offset" />
          </mxGeometry>
        </mxCell>
        <mxCell id="qOq36qgV_aA-appTDX9U-48" value="Primeiro Acesso?" style="rhombus;whiteSpace=wrap;html=1;fillColor=#e1d5e7;strokeColor=#9673a6;rounded=1;" vertex="1" parent="1">
          <mxGeometry x="130" y="340" width="80" height="80" as="geometry" />
        </mxCell>
        <mxCell id="qOq36qgV_aA-appTDX9U-68" style="edgeStyle=orthogonalEdgeStyle;rounded=0;orthogonalLoop=1;jettySize=auto;html=1;exitX=0.5;exitY=1;exitDx=0;exitDy=0;flowAnimation=1;" edge="1" parent="1" source="qOq36qgV_aA-appTDX9U-48" target="qOq36qgV_aA-appTDX9U-48">
          <mxGeometry relative="1" as="geometry" />
        </mxCell>
        <mxCell id="qOq36qgV_aA-appTDX9U-69" value="Dados corretos?" style="rhombus;whiteSpace=wrap;html=1;fillColor=#e1d5e7;strokeColor=#9673a6;rounded=1;" vertex="1" parent="1">
          <mxGeometry x="410" y="560" width="80" height="80" as="geometry" />
        </mxCell>
        <mxCell id="qOq36qgV_aA-appTDX9U-71" style="edgeStyle=orthogonalEdgeStyle;rounded=0;orthogonalLoop=1;jettySize=auto;html=1;fillColor=#e1d5e7;strokeColor=#9673a6;strokeWidth=3;flowAnimation=1;" edge="1" parent="1" target="qOq36qgV_aA-appTDX9U-17">
          <mxGeometry relative="1" as="geometry">
            <mxPoint x="490" y="600" as="sourcePoint" />
            <mxPoint x="450" y="510" as="targetPoint" />
            <Array as="points">
              <mxPoint x="490" y="601" />
              <mxPoint x="531" y="601" />
              <mxPoint x="531" y="510" />
              <mxPoint x="530" y="510" />
              <mxPoint x="530" y="450" />
              <mxPoint x="380" y="450" />
            </Array>
          </mxGeometry>
        </mxCell>
        <mxCell id="qOq36qgV_aA-appTDX9U-72" value="N" style="edgeLabel;html=1;align=center;verticalAlign=middle;resizable=0;points=[];" vertex="1" connectable="0" parent="qOq36qgV_aA-appTDX9U-71">
          <mxGeometry x="-0.9381" relative="1" as="geometry">
            <mxPoint x="-10" as="offset" />
          </mxGeometry>
        </mxCell>
        <mxCell id="qOq36qgV_aA-appTDX9U-73" style="edgeStyle=orthogonalEdgeStyle;rounded=0;orthogonalLoop=1;jettySize=auto;html=1;exitX=0.5;exitY=1;exitDx=0;exitDy=0;fillColor=#e1d5e7;strokeColor=#9673a6;strokeWidth=3;flowAnimation=1;" edge="1" parent="1" target="qOq36qgV_aA-appTDX9U-33">
          <mxGeometry relative="1" as="geometry">
            <mxPoint x="449.57" y="640" as="sourcePoint" />
            <mxPoint x="449.57" y="700" as="targetPoint" />
          </mxGeometry>
        </mxCell>
        <mxCell id="qOq36qgV_aA-appTDX9U-74" value="S" style="edgeLabel;html=1;align=center;verticalAlign=middle;resizable=0;points=[];labelBorderColor=none;" vertex="1" connectable="0" parent="qOq36qgV_aA-appTDX9U-73">
          <mxGeometry x="-0.7971" y="-2" relative="1" as="geometry">
            <mxPoint x="1" y="-5" as="offset" />
          </mxGeometry>
        </mxCell>
      </root>
    </mxGraphModel>
  </diagram>
</mxfile>
